<svg width="24px" height="14px" viewBox="0 0 24 14" version="1.1" xmlns="http://www.w3.org/2000/svg" xmlns:xlink="http://www.w3.org/1999/xlink">
    <defs>
        <polygon id="path-1" points="0 0 24 0 24 14 0 14"></polygon>
    </defs>
    <g id="Admin-Tabs-" stroke="none" stroke-width="1" fill="none" fill-rule="evenodd">
        <g id="Change-language-menu" transform="translate(-1253.000000, -47.000000)">
            <g id="Header" transform="translate(158.000000, 0.000000)">
                <g id="en-glag" transform="translate(1095.000000, 47.000000)">
                    <mask id="mask-2" fill="white">
                        <use xlink:href="#path-1"></use>
                    </mask>
                    <g id="Clip-2"></g>
                    <polygon id="Fill-1" fill="#CB2026" mask="url(#mask-2)" points="0 14.0504 24 14.0504 24 12.6504 0 12.6504"></polygon>
                    <polygon id="Fill-3" fill="#FFFFFF" mask="url(#mask-2)" points="0 12.7904 24 12.7904 24 11.5969 0 11.5969"></polygon>
                    <polygon id="Fill-4" fill="#CB2026" mask="url(#mask-2)" points="0 11.6669 24 11.6669 24 10.5434 0 10.5434"></polygon>
                    <polygon id="Fill-5" fill="#FFFFFF" mask="url(#mask-2)" points="0 10.5434 24 10.5434 24 9.4892 0 9.4892"></polygon>
                    <polygon id="Fill-6" fill="#CB2026" mask="url(#mask-2)" points="0 9.4892 24 9.4892 24 8.4343 0 8.4343"></polygon>
                    <polygon id="Fill-7" fill="#FFFFFF" mask="url(#mask-2)" points="0 8.4343 24 8.4343 24 7.3808 0 7.3808"></polygon>
                    <polygon id="Fill-8" fill="#CB2026" mask="url(#mask-2)" points="0 7.3808 24 7.3808 24 6.3252 0 6.3252"></polygon>
                    <polygon id="Fill-9" fill="#FFFFFF" mask="url(#mask-2)" points="0 6.3252 24 6.3252 24 5.2717 0 5.2717"></polygon>
                    <polygon id="Fill-10" fill="#CB2026" mask="url(#mask-2)" points="0 5.2717 24 5.2717 24 4.2182 0 4.2182"></polygon>
                    <polygon id="Fill-11" fill="#FFFFFF" mask="url(#mask-2)" points="0 4.2182 24 4.2182 24 3.1633 0 3.1633"></polygon>
                    <polygon id="Fill-12" fill="#CB2026" mask="url(#mask-2)" points="0 3.1633 24 3.1633 24 2.1091 0 2.1091"></polygon>
                    <polygon id="Fill-13" fill="#FFFFFF" mask="url(#mask-2)" points="0 2.1091 24 2.1091 24 1.0549 0 1.0549"></polygon>
                    <polygon id="Fill-14" fill="#CB2026" mask="url(#mask-2)" points="0 1.0549 24 1.0549 24 -2.48689958e-15 0 -2.48689958e-15"></polygon>
                    <polygon id="Fill-15" fill="#2A3560" mask="url(#mask-2)" points="0 7.3808 10.9599881 7.3808 10.9599881 -2.48689958e-15 0 -2.48689958e-15"></polygon>
                    <polygon id="Fill-16" fill="#FFFFFF" mask="url(#mask-2)" points="0.990317295 0.8134 1.0839863 1.0934 1.38429912 1.0934 1.14118874 1.2656 1.23342768 1.54427 0.990317295 1.372 0.747206912 1.54427 0.842305973 1.2656 0.599195591 1.0934 0.896648294 1.0934"></polygon>
                    <polygon id="Fill-17" fill="#FFFFFF" mask="url(#mask-2)" points="0.990317295 2.0461 1.0839863 2.3247 1.38429912 2.3247 1.14118874 2.4962 1.23342768 2.7762 0.990317295 2.60337 0.747206912 2.7762 0.842305973 2.4962 0.599195591 2.3247 0.896648294 2.3247"></polygon>
                    <polygon id="Fill-18" fill="#FFFFFF" mask="url(#mask-2)" points="0.990317295 3.2781 1.0839863 3.556 1.38429912 3.556 1.14118874 3.7282 1.23342768 4.0082 0.990317295 3.8353 0.747206912 4.0082 0.842305973 3.7282 0.599195591 3.556 0.896648294 3.556"></polygon>
                    <polygon id="Fill-19" fill="#FFFFFF" mask="url(#mask-2)" points="0.990317295 4.5094 1.0839863 4.7887 1.38429912 4.7887 1.14118874 4.9609 1.23342768 5.2395 0.990317295 5.0673 0.747206912 5.2395 0.842305973 4.9609 0.599195591 4.7887 0.896648294 4.7887"></polygon>
                    <polygon id="Fill-20" fill="#FFFFFF" mask="url(#mask-2)" points="0.990317295 5.7407 1.0839863 6.0214 1.38429912 6.0214 1.14118874 6.1922 1.23342768 6.4708 0.990317295 6.2986 0.747206912 6.4708 0.842305973 6.1922 0.599195591 6.0214 0.896648294 6.0214"></polygon>
                    <polygon id="Fill-21" fill="#FFFFFF" mask="url(#mask-2)" points="1.86694473 1.4623 1.95632355 1.7423 2.25806644 1.7423 2.01638612 1.9152 2.10719499 2.1931 1.86694473 2.0216 1.62597944 2.1931 1.71678832 1.9152 1.475108 1.7423 1.77542083 1.7423"></polygon>
                    <polygon id="Fill-22" fill="#FFFFFF" mask="url(#mask-2)" points="1.86694473 2.695 1.95632355 2.9729 2.25806644 2.9729 2.01638612 3.1458 2.10719499 3.4244 1.86694473 3.2536 1.62597944 3.4244 1.71678832 3.1458 1.475108 2.9729 1.77542083 2.9729"></polygon>
                    <polygon id="Fill-23" fill="#FFFFFF" mask="url(#mask-2)" points="1.86694473 3.927 1.95632355 4.2056 2.25806644 4.2056 2.01638612 4.3778 2.10719499 4.6571 1.86694473 4.4842 1.62597944 4.6571 1.71678832 4.3778 1.475108 4.2056 1.77542083 4.2056"></polygon>
                    <polygon id="Fill-24" fill="#FFFFFF" mask="url(#mask-2)" points="1.86694473 5.159 1.95632355 5.4376 2.25806644 5.4376 2.01638612 5.6098 2.10719499 5.8877 1.86694473 5.7148 1.62597944 5.8877 1.71678832 5.6098 1.475108 5.4376 1.77542083 5.4376"></polygon>
                    <polygon id="Fill-25" fill="#FFFFFF" mask="url(#mask-2)" points="2.75286757 0.8134 2.84653657 1.0934 3.1468494 1.0934 2.90373901 1.2656 2.99740801 1.54427 2.75286757 1.372 2.51261731 1.54427 2.60485625 1.2656 2.36174587 1.0934 2.66062863 1.0934"></polygon>
                    <polygon id="Fill-26" fill="#FFFFFF" mask="url(#mask-2)" points="2.75286757 2.0461 2.84653657 2.3247 3.1468494 2.3247 2.90373901 2.4962 2.99740801 2.7762 2.75286757 2.60337 2.51261731 2.7762 2.60485625 2.4962 2.36174587 2.3247 2.66062863 2.3247"></polygon>
                    <polygon id="Fill-27" fill="#FFFFFF" mask="url(#mask-2)" points="2.75286757 3.2781 2.84653657 3.556 3.1468494 3.556 2.90373901 3.7282 2.99740801 4.0082 2.75286757 3.8353 2.51261731 4.0082 2.60485625 3.7282 2.36174587 3.556 2.66062863 3.556"></polygon>
                    <polygon id="Fill-28" fill="#FFFFFF" mask="url(#mask-2)" points="2.75286757 4.5094 2.84653657 4.7887 3.1468494 4.7887 2.90373901 4.9609 2.99740801 5.2395 2.75286757 5.0673 2.51261731 5.2395 2.60485625 4.9609 2.36174587 4.7887 2.66062863 4.7887"></polygon>
                    <polygon id="Fill-29" fill="#FFFFFF" mask="url(#mask-2)" points="2.75286757 5.7407 2.84653657 6.0214 3.1468494 6.0214 2.90373901 6.1922 2.99740801 6.4708 2.75286757 6.2986 2.51261731 6.4708 2.60485625 6.1922 2.36174587 6.0214 2.66062863 6.0214"></polygon>
                    <polygon id="Fill-30" fill="#FFFFFF" mask="url(#mask-2)" points="3.62949501 1.4623 3.72173395 1.7423 4.02347684 1.7423 3.77893639 1.9152 3.87260539 2.1931 3.62949501 2.0216 3.38781469 2.1931 3.48148369 1.9152 3.23694324 1.7423 3.53725607 1.7423"></polygon>
                    <polygon id="Fill-31" fill="#FFFFFF" mask="url(#mask-2)" points="3.62949501 2.695 3.72173395 2.9729 4.02347684 2.9729 3.77893639 3.1458 3.87260539 3.4244 3.62949501 3.2536 3.38781469 3.4244 3.48148369 3.1458 3.23694324 2.9729 3.53725607 2.9729"></polygon>
                    <polygon id="Fill-32" fill="#FFFFFF" mask="url(#mask-2)" points="3.62949501 3.927 3.72173395 4.2056 4.02347684 4.2056 3.77893639 4.3778 3.87260539 4.6571 3.62949501 4.4842 3.38781469 4.6571 3.48148369 4.3778 3.23694324 4.2056 3.53725607 4.2056"></polygon>
                    <polygon id="Fill-33" fill="#FFFFFF" mask="url(#mask-2)" points="3.62949501 5.159 3.72173395 5.4376 4.02347684 5.4376 3.77893639 5.6098 3.87260539 5.8877 3.62949501 5.7148 3.38781469 5.8877 3.48148369 5.6098 3.23694324 5.4376 3.53725607 5.4376"></polygon>
                    <polygon id="Fill-34" fill="#FFFFFF" mask="url(#mask-2)" points="4.51827797 0.8134 4.61123194 1.0934 4.90868464 1.0934 4.66628929 1.2656 4.76210338 1.54427 4.51827797 1.372 4.27516759 1.54427 4.36740652 1.2656 4.12715626 1.0934 4.42603903 1.0934"></polygon>
                    <polygon id="Fill-35" fill="#FFFFFF" mask="url(#mask-2)" points="4.51827797 2.0461 4.61123194 2.3247 4.90868464 2.3247 4.66628929 2.4962 4.76210338 2.7762 4.51827797 2.60337 4.27516759 2.7762 4.36740652 2.4962 4.12715626 2.3247 4.42603903 2.3247"></polygon>
                    <polygon id="Fill-36" fill="#FFFFFF" mask="url(#mask-2)" points="4.51827797 3.2781 4.61123194 3.556 4.90868464 3.556 4.66628929 3.7282 4.76210338 4.0082 4.51827797 3.8353 4.27516759 4.0082 4.36740652 3.7282 4.12715626 3.556 4.42603903 3.556"></polygon>
                    <polygon id="Fill-37" fill="#FFFFFF" mask="url(#mask-2)" points="4.51827797 4.5094 4.61123194 4.7887 4.90868464 4.7887 4.66628929 4.9609 4.76210338 5.2395 4.51827797 5.0673 4.27516759 5.2395 4.36740652 4.9609 4.12715626 4.7887 4.42603903 4.7887"></polygon>
                    <polygon id="Fill-38" fill="#FFFFFF" mask="url(#mask-2)" points="4.51827797 5.7407 4.61123194 6.0214 4.90868464 6.0214 4.66628929 6.1922 4.76210338 6.4708 4.51827797 6.2986 4.27516759 6.4708 4.36740652 6.1922 4.12715626 6.0214 4.42603903 6.0214"></polygon>
                    <polygon id="Fill-39" fill="#FFFFFF" mask="url(#mask-2)" points="5.39490541 1.4623 5.48714435 1.7423 5.78602711 1.7423 5.54434679 1.9152 5.63515567 2.1931 5.39490541 2.0216 5.15322509 2.1931 5.24403396 1.9152 5.00235364 1.7423 5.30123641 1.7423"></polygon>
                    <polygon id="Fill-40" fill="#FFFFFF" mask="url(#mask-2)" points="5.39490541 2.695 5.48714435 2.9729 5.78602711 2.9729 5.54434679 3.1458 5.63515567 3.4244 5.39490541 3.2536 5.15322509 3.4244 5.24403396 3.1458 5.00235364 2.9729 5.30123641 2.9729"></polygon>
                    <polygon id="Fill-41" fill="#FFFFFF" mask="url(#mask-2)" points="5.39490541 3.927 5.48714435 4.2056 5.78602711 4.2056 5.54434679 4.3778 5.63515567 4.6571 5.39490541 4.4842 5.15322509 4.6571 5.24403396 4.3778 5.00235364 4.2056 5.30123641 4.2056"></polygon>
                    <polygon id="Fill-42" fill="#FFFFFF" mask="url(#mask-2)" points="5.39490541 5.159 5.48714435 5.4376 5.78602711 5.4376 5.54434679 5.6098 5.63515567 5.8877 5.39490541 5.7148 5.15322509 5.8877 5.24403396 5.6098 5.00235364 5.4376 5.30123641 5.4376"></polygon>
                    <polygon id="Fill-43" fill="#FFFFFF" mask="url(#mask-2)" points="6.28011321 0.8134 6.37378221 1.0934 6.67266498 1.0934 6.43098466 1.2656 6.52465366 1.54427 6.28011321 1.372 6.03986295 1.54427 6.13067183 1.2656 5.88899151 1.0934 6.18787427 1.0934"></polygon>
                    <polygon id="Fill-44" fill="#FFFFFF" mask="url(#mask-2)" points="6.28011321 2.0461 6.37378221 2.3247 6.67266498 2.3247 6.43098466 2.4962 6.52465366 2.7762 6.28011321 2.60337 6.03986295 2.7762 6.13067183 2.4962 5.88899151 2.3247 6.18787427 2.3247"></polygon>
                    <polygon id="Fill-45" fill="#FFFFFF" mask="url(#mask-2)" points="6.28011321 3.2781 6.37378221 3.556 6.67266498 3.556 6.43098466 3.7282 6.52465366 4.0082 6.28011321 3.8353 6.03986295 4.0082 6.13067183 3.7282 5.88899151 3.556 6.18787427 3.556"></polygon>
                    <polygon id="Fill-46" fill="#FFFFFF" mask="url(#mask-2)" points="6.28011321 4.5094 6.37378221 4.7887 6.67266498 4.7887 6.43098466 4.9609 6.52465366 5.2395 6.28011321 5.0673 6.03986295 5.2395 6.13067183 4.9609 5.88899151 4.7887 6.18787427 4.7887"></polygon>
                    <polygon id="Fill-47" fill="#FFFFFF" mask="url(#mask-2)" points="6.28011321 5.7407 6.37378221 6.0214 6.67266498 6.0214 6.43098466 6.1922 6.52465366 6.4708 6.28011321 6.2986 6.03986295 6.4708 6.13067183 6.1922 5.88899151 6.0214 6.18787427 6.0214"></polygon>
                    <polygon id="Fill-48" fill="#FFFFFF" mask="url(#mask-2)" points="7.15745568 1.4623 7.24969462 1.7423 7.55143751 1.7423 7.30832713 1.9152 7.40056607 2.1931 7.15745568 2.0216 6.91577536 2.1931 7.00944436 1.9152 6.76633398 1.7423 7.0666468 1.7423"></polygon>
                    <polygon id="Fill-49" fill="#FFFFFF" mask="url(#mask-2)" points="7.15745568 2.695 7.24969462 2.9729 7.55143751 2.9729 7.30832713 3.1458 7.40056607 3.4244 7.15745568 3.2536 6.91577536 3.4244 7.00944436 3.1458 6.76633398 2.9729 7.0666468 2.9729"></polygon>
                    <polygon id="Fill-50" fill="#FFFFFF" mask="url(#mask-2)" points="7.15745568 3.927 7.24969462 4.2056 7.55143751 4.2056 7.30832713 4.3778 7.40056607 4.6571 7.15745568 4.4842 6.91577536 4.6571 7.00944436 4.3778 6.76633398 4.2056 7.0666468 4.2056"></polygon>
                    <polygon id="Fill-51" fill="#FFFFFF" mask="url(#mask-2)" points="7.15745568 5.159 7.24969462 5.4376 7.55143751 5.4376 7.30832713 5.6098 7.40056607 5.8877 7.15745568 5.7148 6.91577536 5.8877 7.00944436 5.6098 6.76633398 5.4376 7.0666468 5.4376"></polygon>
                    <polygon id="Fill-52" fill="#FFFFFF" mask="url(#mask-2)" points="8.04552361 0.8134 8.13919261 1.0934 8.43807538 1.0934 8.19639505 1.2656 8.28720393 1.54427 8.04552361 1.372 7.80527335 1.54427 7.89608223 1.2656 7.65440191 1.0934 7.95328467 1.0934"></polygon>
                    <polygon id="Fill-53" fill="#FFFFFF" mask="url(#mask-2)" points="8.04552361 2.0461 8.13919261 2.3247 8.43807538 2.3247 8.19639505 2.4962 8.28720393 2.7762 8.04552361 2.60337 7.80527335 2.7762 7.89608223 2.4962 7.65440191 2.3247 7.95328467 2.3247"></polygon>
                    <polygon id="Fill-54" fill="#FFFFFF" mask="url(#mask-2)" points="8.04552361 3.2781 8.13919261 3.556 8.43807538 3.556 8.19639505 3.7282 8.28720393 4.0082 8.04552361 3.8353 7.80527335 4.0082 7.89608223 3.7282 7.65440191 3.556 7.95328467 3.556"></polygon>
                    <polygon id="Fill-55" fill="#FFFFFF" mask="url(#mask-2)" points="8.04552361 4.5094 8.13919261 4.7887 8.43807538 4.7887 8.19639505 4.9609 8.28720393 5.2395 8.04552361 5.0673 7.80527335 5.2395 7.89608223 4.9609 7.65440191 4.7887 7.95328467 4.7887"></polygon>
                    <polygon id="Fill-56" fill="#FFFFFF" mask="url(#mask-2)" points="8.04552361 5.7407 8.13919261 6.0214 8.43807538 6.0214 8.19639505 6.1922 8.28720393 6.4708 8.04552361 6.2986 7.80527335 6.4708 7.89608223 6.1922 7.65440191 6.0214 7.95328467 6.0214"></polygon>
                    <polygon id="Fill-57" fill="#FFFFFF" mask="url(#mask-2)" points="8.92286608 1.4623 9.01367496 1.7423 9.31398778 1.7423 9.07373752 1.9152 9.16311634 2.1931 8.92286608 2.0216 8.67832564 2.1931 8.77199464 1.9152 8.53174438 1.7423 8.82919708 1.7423"></polygon>
                    <polygon id="Fill-58" fill="#FFFFFF" mask="url(#mask-2)" points="8.92286608 2.695 9.01367496 2.9729 9.31398778 2.9729 9.07373752 3.1458 9.16311634 3.4244 8.92286608 3.2536 8.67832564 3.4244 8.77199464 3.1458 8.53174438 2.9729 8.82919708 2.9729"></polygon>
                    <polygon id="Fill-59" fill="#FFFFFF" mask="url(#mask-2)" points="8.92286608 3.927 9.01367496 4.2056 9.31398778 4.2056 9.07373752 4.3778 9.16311634 4.6571 8.92286608 4.4842 8.67832564 4.6571 8.77199464 4.3778 8.53174438 4.2056 8.82919708 4.2056"></polygon>
                    <polygon id="Fill-60" fill="#FFFFFF" mask="url(#mask-2)" points="8.92286608 5.159 9.01367496 5.4376 9.31398778 5.4376 9.07373752 5.6098 9.16311634 5.8877 8.92286608 5.7148 8.67832564 5.8877 8.77199464 5.6098 8.53174438 5.4376 8.82919708 5.4376"></polygon>
                    <polygon id="Fill-61" fill="#FFFFFF" mask="url(#mask-2)" points="9.80807389 0.8134 9.90317295 1.0934 10.2006257 1.0934 9.95894533 1.2656 10.0526143 1.54427 9.80807389 1.372 9.56782363 1.54427 9.6586325 1.2656 9.41695218 1.0934 9.71583495 1.0934"></polygon>
                    <polygon id="Fill-62" fill="#FFFFFF" mask="url(#mask-2)" points="9.80807389 2.0461 9.90317295 2.3247 10.2006257 2.3247 9.95894533 2.4962 10.0526143 2.7762 9.80807389 2.60337 9.56782363 2.7762 9.6586325 2.4962 9.41695218 2.3247 9.71583495 2.3247"></polygon>
                    <polygon id="Fill-63" fill="#FFFFFF" mask="url(#mask-2)" points="9.80807389 3.2781 9.90317295 3.556 10.2006257 3.556 9.95894533 3.7282 10.0526143 4.0082 9.80807389 3.8353 9.56782363 4.0082 9.6586325 3.7282 9.41695218 3.556 9.71583495 3.556"></polygon>
                    <polygon id="Fill-64" fill="#FFFFFF" mask="url(#mask-2)" points="9.80807389 4.5094 9.90317295 4.7887 10.2006257 4.7887 9.95894533 4.9609 10.0526143 5.2395 9.80807389 5.0673 9.56782363 5.2395 9.6586325 4.9609 9.41695218 4.7887 9.71583495 4.7887"></polygon>
                    <polygon id="Fill-65" fill="#FFFFFF" mask="url(#mask-2)" points="9.80807389 5.7407 9.90317295 6.0214 10.2006257 6.0214 9.95894533 6.1922 10.0526143 6.4708 9.80807389 6.2986 9.56782363 6.4708 9.6586325 6.1922 9.41695218 6.0214 9.71583495 6.0214"></polygon>
                </g>
            </g>
        </g>
    </g>
</svg>