<?xml version="1.0" encoding="utf-8"?>
<!-- Generator: Adobe Illustrator 25.4.1, SVG Export Plug-In . SVG Version: 6.00 Build 0)  -->
<svg version="1.1" id="Layer_1" xmlns="http://www.w3.org/2000/svg" xmlns:xlink="http://www.w3.org/1999/xlink" x="0px" y="0px"
	 viewBox="0 0 24 24" style="enable-background:new 0 0 24 24;" xml:space="preserve">
<style type="text/css">
	.st0{fill:#4A5568;}
</style>
<g>
	<path class="st0" d="M12,21.4c-0.3,0-0.5-0.1-0.7-0.3l-7.7-7.7c-2.1-2.1-2.1-5.6,0-7.8s5.6-2.1,7.8,0L12,6.2l0.6-0.6
		c1-1,2.4-1.6,3.9-1.6s2.9,0.6,3.9,1.6c1,1,1.6,2.4,1.6,3.9s-0.6,2.9-1.6,3.9l-7.7,7.7C12.5,21.3,12.3,21.4,12,21.4z M7.5,6
		C6.6,6,5.7,6.3,5,7c-1.4,1.4-1.4,3.6,0,5l7,7l7-7c0.7-0.7,1-1.5,1-2.5S19.6,7.7,19,7c-1.3-1.3-3.6-1.3-4.9,0l-1.3,1.3
		c-0.2,0.2-0.4,0.3-0.7,0.3l0,0c-0.3,0-0.5-0.1-0.7-0.3L10,7C9.3,6.3,8.4,6,7.5,6z"/>
</g>
</svg>
