<?xml version="1.0" encoding="utf-8"?>
<!-- Generator: Adobe Illustrator 25.4.1, SVG Export Plug-In . SVG Version: 6.00 Build 0)  -->
<svg version="1.1" id="Layer_1" xmlns="http://www.w3.org/2000/svg" xmlns:xlink="http://www.w3.org/1999/xlink" x="0px" y="0px"
	 viewBox="0 0 24 24" style="enable-background:new 0 0 24 24;" xml:space="preserve">
<style type="text/css">
	.st0{fill:#4A5568;}
</style>
<g>
	<path class="st0" d="M20,19H4c-0.6,0-1-0.4-1-1s0.4-1,1-1h16c0.6,0,1,0.4,1,1S20.6,19,20,19z M20,13H4c-0.6,0-1-0.4-1-1s0.4-1,1-1
		h16c0.6,0,1,0.4,1,1S20.6,13,20,13z M20,7H4C3.4,7,3,6.6,3,6s0.4-1,1-1h16c0.6,0,1,0.4,1,1S20.6,7,20,7z"/>
</g>
</svg>
