<?xml version="1.0" encoding="utf-8"?>
<!-- Generator: Adobe Illustrator 25.4.1, SVG Export Plug-In . SVG Version: 6.00 Build 0)  -->
<svg version="1.1" id="Layer_1" xmlns="http://www.w3.org/2000/svg" xmlns:xlink="http://www.w3.org/1999/xlink" x="0px" y="0px"
	 viewBox="0 0 24 24" style="enable-background:new 0 0 24 24;" xml:space="preserve">
<style type="text/css">
	.st0{fill:#4A5568;}
</style>
<g>
	<path class="st0" d="M19,22h-1C9.2,22,2,14.8,2,6V5c0-1.7,1.3-3,3-3h3.3c0.9,0,1.6,0.5,1.9,1.4l1.5,4.5c0.3,0.9-0.1,2-1,2.4L9.3,11
		c0.9,1.6,2.2,2.8,3.7,3.7l0.7-1.4c0.4-0.9,1.5-1.3,2.4-1l4.5,1.5c0.8,0.3,1.4,1,1.4,1.9V19C22,20.7,20.7,22,19,22z M8.3,4H5
		C4.4,4,4,4.4,4,5v1c0,7.7,6.3,14,14,14h1c0.6,0,1-0.4,1-1v-3.3l-4.5-1.5l-1.1,2.3c-0.2,0.5-0.8,0.7-1.3,0.5c-2.7-1.2-4.8-3.3-6-6
		c-0.2-0.5,0-1.1,0.5-1.3l2.3-1.1L8.3,4z"/>
</g>
</svg>
