<?xml version="1.0" encoding="utf-8"?>
<!-- Generator: Adobe Illustrator 25.4.1, SVG Export Plug-In . SVG Version: 6.00 Build 0)  -->
<svg version="1.1" id="Layer_1" xmlns="http://www.w3.org/2000/svg" xmlns:xlink="http://www.w3.org/1999/xlink" x="0px" y="0px"
	 viewBox="0 0 24 24" style="enable-background:new 0 0 24 24;" xml:space="preserve">
<style type="text/css">
	.st0{fill:#4A5568;}
</style>
<g>
	<path class="st0" d="M17,22c-1.7,0-3-1.3-3-3c0-0.4,0.1-0.7,0.2-1H9.8c0.1,0.3,0.2,0.6,0.2,1c0,1.7-1.3,3-3,3s-3-1.3-3-3
		c0-0.5,0.1-0.9,0.3-1.3c-0.3-0.2-0.6-0.5-0.7-0.9C3.3,16,3.4,15.2,4,14.6l1.9-1.9L4.4,5.2c0,0,0,0,0,0L4.2,4H3C2.4,4,2,3.6,2,3
		s0.4-1,1-1h2c0.5,0,0.9,0.3,1,0.8L6.2,4H21c0.3,0,0.7,0.2,0.9,0.5c0.2,0.3,0.2,0.7,0,1l-4,8C17.7,13.8,17.4,14,17,14H7.4l-2,2H7
		c0,0,0,0,0,0h10c0,0,0,0,0,0c1.7,0,3,1.3,3,3C20,20.7,18.7,22,17,22z M17,18c-0.6,0-1,0.4-1,1s0.4,1,1,1s1-0.4,1-1S17.6,18,17,18z
		 M7,18c-0.6,0-1,0.4-1,1s0.4,1,1,1s1-0.4,1-1S7.6,18,7,18z M7.8,12h8.6l3-6H6.6L7.8,12z"/>
</g>
</svg>
