<?xml version="1.0" encoding="utf-8"?>
<!-- Generator: Adobe Illustrator 15.0.0, SVG Export Plug-In . SVG Version: 6.00 Build 0)  -->
<!DOCTYPE svg PUBLIC "-//W3C//DTD SVG 1.1//EN" "http://www.w3.org/Graphics/SVG/1.1/DTD/svg11.dtd">
<svg version="1.1" id="Layer_1" xmlns="http://www.w3.org/2000/svg" xmlns:xlink="http://www.w3.org/1999/xlink" x="0px" y="0px"
	 width="24px" height="24px" viewBox="0 0 24 24" enable-background="new 0 0 24 24" xml:space="preserve">
<path fill="none" d="M9,17c0,1.104-0.896,2-2,2s-2-0.896-2-2s0.896-2,2-2S9,15.896,9,17z"/>
<path fill="none" d="M19,17c0,1.104-0.896,2-2,2s-2-0.896-2-2s0.896-2,2-2S19,15.896,19,17z"/>
<g>
	<g>
		<path fill="#374151" d="M17,20c-1.304,0-2.416-0.836-2.829-2H14c-0.364,0-0.706-0.098-1-0.269C12.706,17.902,12.364,18,12,18
			H9.829C9.416,19.164,8.304,20,7,20s-2.416-0.836-2.829-2H4c-1.103,0-2-0.897-2-2V6c0-1.103,0.897-2,2-2h8c1.103,0,2,0.897,2,2
			h2.586C17.12,6,17.622,6.208,18,6.586L21.414,10C21.792,10.378,22,10.88,22,11.414V16c0,1.103-0.897,2-2,2h-0.171
			C19.416,19.164,18.304,20,17,20z M16,17c0,0.552,0.448,1,1,1s1-0.448,1-1s-0.448-1-1-1S16,16.448,16,17z M6,17
			c0,0.552,0.449,1,1,1s1-0.448,1-1s-0.449-1-1-1S6,16.448,6,17z M14,16v0.002l0.171-0.001C14.583,14.837,15.695,14,17,14
			c1.304,0,2.416,0.836,2.829,2H20v-4.586L16.586,8H14V16z M9.829,16H12V6H4v10h0.171C4.584,14.836,5.696,14,7,14
			S9.416,14.836,9.829,16z"/>
	</g>
</g>
</svg>
